<?xml version="1.0" standalone="no"?>
<!DOCTYPE svg PUBLIC "-//W3C//DTD SVG 20010904//EN"
 "http://www.w3.org/TR/2001/REC-SVG-20010904/DTD/svg10.dtd">
<svg version="1.0" xmlns="http://www.w3.org/2000/svg"
 width="700.000000pt" height="700.000000pt" viewBox="0 0 700.000000 700.000000"
 preserveAspectRatio="xMidYMid meet">
<metadata>
Created by potrace 1.11, written by Peter Selinger 2001-2013
</metadata>
<g transform="translate(0.000000,700.000000) scale(0.100000,-0.100000)"
fill="#000000" stroke="none">
<path d="M5641 6980 c-29 -11 -65 -27 -80 -37 -47 -31 -104 -97 -130 -153 -22
-47 -26 -68 -26 -150 1 -79 5 -103 24 -143 122 -249 452 -284 614 -64 66 88
85 219 49 327 -33 99 -131 195 -227 222 -69 20 -165 19 -224 -2z"/>
<path d="M3378 6505 c-2 -1 -46 -5 -98 -9 -111 -7 -156 -12 -265 -31 -44 -8
-93 -17 -110 -20 -16 -2 -41 -7 -55 -10 -14 -3 -35 -8 -47 -11 -76 -16 -286
-82 -397 -126 -142 -55 -359 -163 -471 -232 l-70 -44 -42 58 c-78 107 -206
196 -348 243 -91 29 -277 33 -374 6 -41 -11 -83 -25 -95 -32 -12 -6 -24 -11
-27 -12 -3 0 -34 -17 -68 -38 -150 -93 -264 -252 -305 -428 -14 -62 -16 -253
-3 -305 43 -168 156 -335 284 -419 24 -15 43 -30 43 -34 0 -3 -16 -33 -36 -65
-71 -118 -155 -297 -215 -460 -27 -73 -93 -288 -103 -339 -23 -111 -46 -232
-51 -277 -4 -30 -9 -66 -10 -80 -8 -56 -19 -240 -19 -310 0 -41 -3 -77 -6 -80
-3 -3 -23 -30 -46 -60 -177 -239 -316 -509 -386 -745 -63 -215 -72 -463 -24
-647 113 -437 475 -730 1041 -844 11 -2 76 -11 145 -20 69 -8 136 -17 150 -19
14 -2 88 -4 165 -4 l140 -1 85 -61 c225 -161 524 -312 790 -399 92 -30 256
-76 300 -84 14 -2 45 -9 70 -14 46 -11 71 -15 170 -27 30 -4 64 -9 75 -11 111
-23 539 -22 690 1 17 2 66 9 110 15 332 47 736 191 1047 371 36 22 69 39 72
39 3 0 6 -20 6 -44 0 -132 65 -329 152 -461 45 -69 63 -90 137 -163 116 -114
265 -199 431 -243 72 -20 110 -23 240 -23 132 0 167 3 235 23 284 82 505 267
626 525 68 146 82 216 82 406 0 149 -2 173 -26 251 -51 167 -120 288 -231 407
-161 170 -399 283 -623 294 -29 2 -53 4 -53 6 0 2 17 34 39 70 122 210 231
468 295 697 28 103 71 304 81 385 4 30 9 62 10 70 6 32 16 180 20 292 l4 116
54 74 c195 264 332 541 398 806 27 108 32 149 35 277 2 104 -1 173 -11 225
-56 284 -206 512 -443 674 -212 144 -437 221 -797 271 -22 3 -125 8 -230 11
-173 5 -193 8 -220 27 -485 347 -962 528 -1535 582 -67 7 -377 15 -382 10z
m2712 -1359 c137 -64 231 -157 267 -261 23 -68 25 -198 3 -295 -17 -79 -30
-112 -30 -74 0 11 -4 24 -8 30 -5 5 -21 43 -37 84 -51 137 -179 382 -267 513
-26 38 -33 55 -21 48 10 -5 52 -26 93 -45z m-5274 -2994 c37 -73 95 -178 130
-232 37 -59 57 -100 49 -100 -7 0 -53 20 -102 45 -233 116 -310 291 -247 565
l16 74 44 -110 c24 -60 74 -169 110 -242z"/>
<path d="M269 703 c-107 -27 -189 -97 -238 -202 -22 -48 -26 -69 -25 -146 1
-77 5 -98 28 -145 68 -139 188 -212 340 -206 155 6 283 108 331 265 4 13 7 56
7 96 -1 226 -222 394 -443 338z"/>
</g>
</svg>
